<?xml version="1.0" encoding="UTF-8"?>
<svg xmlns="http://www.w3.org/2000/svg" width="900" height="900" viewBox="0 0 900 900" preserveAspectRatio="xMidYMid meet">
<polygon points="450.0,450.0 450.0,30.0 660.0,86.26933041053576" fill="#df8686" stroke="#cc3d3d" stroke-width="1.5" stroke-linejoin="round"/>
<polygon points="450.0,450.0 660.0,86.26933041053576 813.7306695894642,240.0" fill="#dfb386" stroke="#cc853d" stroke-width="1.5" stroke-linejoin="round"/>
<polygon points="450.0,450.0 813.7306695894642,240.0 870.0,450.0" fill="#dfdf86" stroke="#cccc3d" stroke-width="1.5" stroke-linejoin="round"/>
<polygon points="450.0,450.0 870.0,450.0 813.7306695894642,660.0" fill="#b3df86" stroke="#85cc3d" stroke-width="1.5" stroke-linejoin="round"/>
<polygon points="450.0,450.0 813.7306695894642,660.0 660.0,813.7306695894642" fill="#86df86" stroke="#3dcc3d" stroke-width="1.5" stroke-linejoin="round"/>
<polygon points="450.0,450.0 660.0,813.7306695894642 450.0,870.0" fill="#86dfb3" stroke="#3dcc85" stroke-width="1.5" stroke-linejoin="round"/>
<polygon points="450.0,450.0 450.0,870.0 240.00000000000009,813.7306695894642" fill="#86dfdf" stroke="#3dcccc" stroke-width="1.5" stroke-linejoin="round"/>
<polygon points="450.0,450.0 240.00000000000009,813.7306695894642 86.26933041053582,660.0000000000001" fill="#86b3df" stroke="#3d85cc" stroke-width="1.5" stroke-linejoin="round"/>
<polygon points="450.0,450.0 86.26933041053582,660.0000000000001 30.0,450.00000000000006" fill="#8686df" stroke="#3d3dcc" stroke-width="1.5" stroke-linejoin="round"/>
<polygon points="450.0,450.0 30.0,450.00000000000006 86.26933041053582,239.99999999999994" fill="#b386df" stroke="#853dcc" stroke-width="1.5" stroke-linejoin="round"/>
<polygon points="450.0,450.0 86.26933041053582,239.99999999999994 239.9999999999998,86.26933041053587" fill="#df86df" stroke="#cc3dcc" stroke-width="1.5" stroke-linejoin="round"/>
<polygon points="450.0,450.0 239.9999999999998,86.26933041053587 450.0,30.0" fill="#df86b3" stroke="#cc3d85" stroke-width="1.5" stroke-linejoin="round"/>
<polygon points="450.0,30.0 660.0,86.26933041053576 813.7306695894642,240.0 870.0,450.0 813.7306695894642,660.0 660.0,813.7306695894642 450.0,870.0 240.00000000000009,813.7306695894642 86.26933041053582,660.0000000000001 30.0,450.00000000000006 86.26933041053582,239.99999999999994 239.9999999999998,86.26933041053587" fill="none" stroke="#000000" stroke-opacity="0.06" stroke-width="2"/>
</svg>